# xmcd
#
# Track frame offsets: 
#        150
#        21092
#        36392
#        56314
#        74062
#        90000
#        107587
#        119177
#        133207
#        147392
#        161692
#        175027
#        190512
#        204109
#        219587
#        236032
#        256307
#        273825
#        292802
#        318247
#
# Disc length: 4351 seconds
#
# Revision: 6
# Processed by: cddbd v1.5.2PL0 Copyright (c) Steve Scherf et al.
# Submitted via: ExactAudioCopy v1.3
#
DISCID=2010fd14
DTITLE=Nitty Gritty Dirt Band - Will the Circle Be Unbroken Vol. 2
DYEAR=1998
DGENRE=Country
TTITLE0=Johnny Cash, Carter Family, Nitty Gritty Dirt Band - Life's Ra
TTITLE0=ilway To Heaven
TTITLE1=John Prine, Nitty Gritty Dirt Band - Grandpa Was A Carpenter
TTITLE2=Levon Helm, Jeff Hanna, Nitty Gritty Dirt Band - When I Get My
TTITLE2=Rewards
TTITLE3=Don't You Hear Jerusalem Moan
TTITLE4=Ricky Skaggs, Nitty Gritty Dirt Band - Little Mountain Church 
TTITLE4=House
TTITLE5=John Denver, Nitty Gritty Dirt Band - And So It Goes
TTITLE6=Jimmy Ibbotson, Nitty Gritty Dirt Band - When Its Gone
TTITLE7=Emmy Lou Harris, Nitty Gritty Dirt Band - Mary Danced With The
TTITLE7=Soldiers
TTITLE8=Emmy Lou Harris, Bob Carpenter, Nitty Gritty Dirt Band - Ridin
TTITLE8=g Alone
TTITLE9=Jimmy Martin, Nitty Gritty Dirt Band - I'm Sitting On Top Of T
TTITLE9=he World
TTITLE10=Paulette Carlson, Nitty Gritty Dirt Band - Loving On The Side
TTITLE11=Michael Martin Murphey, Nitty Gritty Dirt Band - Lost River
TTITLE12=Jeff Hanna, Nitty Gritty Dirt Band - Bayou Jubilee
TTITLE13=Jeff Hanna, Nitty Gritty Dirt Band - Blues Berry Hill
TTITLE14=Ibbotson, Hanna, Carpenter, Nitty Gritty Dirt Band - Turn Of 
TTITLE14=The Century
TTITLE15=Rosanne Cash, John Hiatt, Nitty Gritty Dirt Band - One Step O
TTITLE15=ver The Line
TTITLE16=McGuinn, Hillman, Nitty Gritty Dirt Band - You Ain't Going No
TTITLE16=where
TTITLE17=Bruce Horsby, Jeff Hanna, Nitty Gritty Dirt Band - The Valley
TTITLE17=Road
TTITLE18=Casch, Acuff, Skaggs, Helm and Harris, Nitty Gritty Dirt Band /
TTITLE18=Will The Circle Be Unbroken
TTITLE19=Randy Scruggs, Nitty Gritty Dirt Band - Amazing Grace
EXTD=
EXTT0=
EXTT1=
EXTT2=
EXTT3=
EXTT4=
EXTT5=
EXTT6=
EXTT7=
EXTT8=
EXTT9=
EXTT10=
EXTT11=
EXTT12=
EXTT13=
EXTT14=
EXTT15=
EXTT16=
EXTT17=
EXTT18=
EXTT19=
PLAYORDER=
